<svg xmlns="http://www.w3.org/2000/svg" viewBox="0 0 32 32"><g data-name="99 link-external-01"><path d="M23.78 27H8.22A3.23 3.23 0 0 1 5 23.78V8.22A3.23 3.23 0 0 1 8.22 5h4.46v2H8.22A1.22 1.22 0 0 0 7 8.22v15.56A1.22 1.22 0 0 0 8.22 25h15.56A1.22 1.22 0 0 0 25 23.78V19.5h2v4.28A3.23 3.23 0 0 1 23.78 27ZM27 14.89h-2V7h-7.89V5H25a2 2 0 0 1 2 2Z" fill="#9e9e9e" class="fill-000000"></path><path d="m15.296 15.302 9.348-9.347 1.414 1.414-9.347 9.348z" fill="#9e9e9e" class="fill-000000"></path></g></svg>